{
  "accessors": [
    {
      "bufferView": 0,
      "componentType": 5126,
      "count": 82126,
      "max": [
        246.217102050781,
        434.74951171875,
        203.381607055664
      ],
      "min": [
        -246.214294433594,
        -434.744506835938,
        -203.30110168457
      ],
      "type": "VEC3"
    },
    {
      "bufferView": 1,
      "componentType": 5126,
      "count": 82126,
      "type": "VEC3"
    },
    {
      "bufferView": 2,
      "componentType": 5126,
      "count": 82126,
      "type": "VEC2"
    },
    {
      "bufferView": 3,
      "componentType": 5125,
      "count": 449997,
      "type": "SCALAR"
    }
  ],
  "asset": {
    "generator": "MeshSmith mesh conversion tool",
    "version": "2.0"
  },
  "bufferViews": [
    {
      "buffer": 0,
      "byteLength": 985512,
      "target": 34962
    },
    {
      "buffer": 0,
      "byteLength": 985512,
      "byteOffset": 985512,
      "target": 34962
    },
    {
      "buffer": 0,
      "byteLength": 657008,
      "byteOffset": 1971024,
      "target": 34962
    },
    {
      "buffer": 0,
      "byteLength": 1799988,
      "byteOffset": 2628032,
      "target": 34963
    }
  ],
  "buffers": [
    {
      "byteLength": 4428020,
      "uri": "kneeling-winged-monster-150k-4096-web.bin"
    }
  ],
  "images": [
    {
      "uri": "kneeling-winged-monster-150k-4096-diffuse.jpg"
    },
    {
      "uri": "kneeling-winged-monster-150k-4096-occlusion.jpg"
    },
    {
      "uri": "kneeling-winged-monster-150k-4096-normals.jpg"
    }
  ],
  "materials": [
    {
      "name": "default",
      "normalTexture": {
        "index": 2
      },
      "occlusionTexture": {
        "index": 1
      },
      "pbrMetallicRoughness": {
        "baseColorTexture": {
          "index": 0
        },
        "metallicFactor": 0.100000001490116,
        "roughnessFactor": 0.800000011920929
      }
    }
  ],
  "meshes": [
    {
      "primitives": [
        {
          "attributes": {
            "NORMAL": 1,
            "POSITION": 0,
            "TEXCOORD_0": 2
          },
          "indices": 3,
          "material": 0,
          "mode": 4
        }
      ]
    }
  ],
  "nodes": [
    {
      "mesh": 0
    }
  ],
  "scene": 0,
  "scenes": [
    {
      "nodes": [
        0
      ]
    }
  ],
  "textures": [
    {
      "source": 0
    },
    {
      "source": 1
    },
    {
      "source": 2
    }
  ]
}